<mxfile host="app.diagrams.net" modified="2023-12-12T10:54:05.916Z" agent="Mozilla/5.0 (Windows NT 10.0; Win64; x64) AppleWebKit/537.36 (KHTML, like Gecko) Chrome/120.0.0.0 Safari/537.36" etag="OJdnURd-foGKOHtub1am" version="22.1.7" type="github">
  <diagram name="Pagina-1" id="cf_w4cWnPMU6ob8SFnJr">
    <mxGraphModel dx="618" dy="308" grid="1" gridSize="10" guides="1" tooltips="1" connect="1" arrows="1" fold="1" page="1" pageScale="1" pageWidth="827" pageHeight="1169" math="0" shadow="0">
      <root>
        <mxCell id="0" />
        <mxCell id="1" parent="0" />
        <mxCell id="j2nHeT8dDJSnSYEvVTAE-1" value="SHIFT REGISTER&lt;br&gt;2 - BIT" style="whiteSpace=wrap;html=1;aspect=fixed;" vertex="1" parent="1">
          <mxGeometry x="239" y="120" width="80" height="80" as="geometry" />
        </mxCell>
        <mxCell id="j2nHeT8dDJSnSYEvVTAE-2" value="SHIFT REGISTER&lt;br&gt;2 - BIT" style="whiteSpace=wrap;html=1;aspect=fixed;" vertex="1" parent="1">
          <mxGeometry x="239" y="321" width="80" height="80" as="geometry" />
        </mxCell>
        <mxCell id="j2nHeT8dDJSnSYEvVTAE-3" value="" style="endArrow=classic;html=1;rounded=0;entryX=0.75;entryY=1;entryDx=0;entryDy=0;" edge="1" parent="1" target="j2nHeT8dDJSnSYEvVTAE-1">
          <mxGeometry width="50" height="50" relative="1" as="geometry">
            <mxPoint x="299" y="240" as="sourcePoint" />
            <mxPoint x="559" y="250" as="targetPoint" />
          </mxGeometry>
        </mxCell>
        <mxCell id="j2nHeT8dDJSnSYEvVTAE-4" value="" style="endArrow=classic;html=1;rounded=0;entryX=0.25;entryY=1;entryDx=0;entryDy=0;" edge="1" parent="1" target="j2nHeT8dDJSnSYEvVTAE-1">
          <mxGeometry width="50" height="50" relative="1" as="geometry">
            <mxPoint x="259" y="240" as="sourcePoint" />
            <mxPoint x="263" y="210" as="targetPoint" />
          </mxGeometry>
        </mxCell>
        <mxCell id="j2nHeT8dDJSnSYEvVTAE-5" value="CLK" style="text;html=1;strokeColor=none;fillColor=none;align=center;verticalAlign=middle;whiteSpace=wrap;rounded=0;" vertex="1" parent="1">
          <mxGeometry x="229" y="230" width="60" height="30" as="geometry" />
        </mxCell>
        <mxCell id="j2nHeT8dDJSnSYEvVTAE-6" value="RST" style="text;html=1;strokeColor=none;fillColor=none;align=center;verticalAlign=middle;whiteSpace=wrap;rounded=0;" vertex="1" parent="1">
          <mxGeometry x="269" y="230" width="60" height="30" as="geometry" />
        </mxCell>
        <mxCell id="j2nHeT8dDJSnSYEvVTAE-7" value="" style="endArrow=classic;html=1;rounded=0;entryX=0.75;entryY=1;entryDx=0;entryDy=0;" edge="1" parent="1">
          <mxGeometry width="50" height="50" relative="1" as="geometry">
            <mxPoint x="299" y="441" as="sourcePoint" />
            <mxPoint x="299" y="401" as="targetPoint" />
          </mxGeometry>
        </mxCell>
        <mxCell id="j2nHeT8dDJSnSYEvVTAE-8" value="" style="endArrow=classic;html=1;rounded=0;entryX=0.25;entryY=1;entryDx=0;entryDy=0;" edge="1" parent="1">
          <mxGeometry width="50" height="50" relative="1" as="geometry">
            <mxPoint x="259" y="441" as="sourcePoint" />
            <mxPoint x="259" y="401" as="targetPoint" />
          </mxGeometry>
        </mxCell>
        <mxCell id="j2nHeT8dDJSnSYEvVTAE-9" value="CLK" style="text;html=1;strokeColor=none;fillColor=none;align=center;verticalAlign=middle;whiteSpace=wrap;rounded=0;" vertex="1" parent="1">
          <mxGeometry x="229" y="431" width="60" height="30" as="geometry" />
        </mxCell>
        <mxCell id="j2nHeT8dDJSnSYEvVTAE-10" value="RST" style="text;html=1;strokeColor=none;fillColor=none;align=center;verticalAlign=middle;whiteSpace=wrap;rounded=0;" vertex="1" parent="1">
          <mxGeometry x="269" y="431" width="60" height="30" as="geometry" />
        </mxCell>
        <mxCell id="j2nHeT8dDJSnSYEvVTAE-11" value="" style="endArrow=classic;html=1;rounded=0;entryX=0;entryY=0.5;entryDx=0;entryDy=0;" edge="1" parent="1" target="j2nHeT8dDJSnSYEvVTAE-1">
          <mxGeometry width="50" height="50" relative="1" as="geometry">
            <mxPoint x="139" y="160" as="sourcePoint" />
            <mxPoint x="559" y="290" as="targetPoint" />
          </mxGeometry>
        </mxCell>
        <mxCell id="j2nHeT8dDJSnSYEvVTAE-12" value="" style="endArrow=classic;html=1;rounded=0;entryX=0;entryY=0.5;entryDx=0;entryDy=0;" edge="1" parent="1" target="j2nHeT8dDJSnSYEvVTAE-2">
          <mxGeometry width="50" height="50" relative="1" as="geometry">
            <mxPoint x="159" y="160" as="sourcePoint" />
            <mxPoint x="159" y="360" as="targetPoint" />
            <Array as="points">
              <mxPoint x="159" y="361" />
            </Array>
          </mxGeometry>
        </mxCell>
        <mxCell id="j2nHeT8dDJSnSYEvVTAE-13" value="w" style="text;html=1;strokeColor=none;fillColor=none;align=center;verticalAlign=middle;whiteSpace=wrap;rounded=0;" vertex="1" parent="1">
          <mxGeometry x="100" y="145" width="60" height="30" as="geometry" />
        </mxCell>
        <mxCell id="j2nHeT8dDJSnSYEvVTAE-14" value="&lt;font style=&quot;font-size: 60px;&quot;&gt;.&lt;/font&gt;" style="text;html=1;strokeColor=none;fillColor=none;align=center;verticalAlign=middle;whiteSpace=wrap;rounded=0;" vertex="1" parent="1">
          <mxGeometry x="129" y="127" width="60" height="30" as="geometry" />
        </mxCell>
      </root>
    </mxGraphModel>
  </diagram>
</mxfile>
